<?xml version="1.0" standalone="no"?>
<!DOCTYPE svg PUBLIC "-//W3C//DTD SVG 20010904//EN"
 "http://www.w3.org/TR/2001/REC-SVG-20010904/DTD/svg10.dtd">
<svg version="1.0" xmlns="http://www.w3.org/2000/svg"
 width="260.000000pt" height="260.000000pt" viewBox="0 0 260.000000 260.000000"
 preserveAspectRatio="xMidYMid meet">
<metadata>
Created by potrace 1.11, written by Peter Selinger 2001-2013
</metadata>
<g transform="translate(0.000000,260.000000) scale(0.100000,-0.100000)"
fill="#000000" stroke="none">
<path d="M819 2458 c0 -7 -2 -24 -4 -38 -1 -14 -6 -65 -10 -115 -3 -49 -8
-106 -10 -125 -4 -39 -12 -133 -20 -230 -10 -136 -17 -185 -28 -196 -7 -6 -61
-28 -122 -47 -240 -79 -237 -77 -230 -106 4 -14 8 -33 10 -41 2 -8 17 -76 35
-150 17 -74 38 -163 46 -197 8 -35 21 -91 29 -125 8 -35 30 -134 50 -221 41
-182 43 -187 59 -187 6 0 114 27 241 59 126 33 232 58 234 55 2 -2 4 -103 4
-223 0 -153 3 -221 11 -224 113 -46 556 -217 560 -217 3 0 5 160 5 356 -1 196
3 359 7 364 5 4 23 12 39 18 64 22 458 191 466 199 7 7 -187 621 -228 723 -4
8 -7 17 -7 20 -4 20 -31 97 -38 106 -5 8 -25 8 -60 3 -29 -5 -75 -11 -103 -14
-27 -3 -57 -8 -65 -10 -8 -2 -44 -7 -80 -10 -36 -4 -83 -10 -106 -14 l-41 -8
14 81 c7 45 15 99 18 121 3 22 7 51 10 65 3 14 7 41 9 60 3 19 10 59 15 89 6
29 11 59 11 66 0 18 10 16 -357 70 -16 2 -71 11 -123 19 -52 8 -115 17 -140
21 -25 3 -57 8 -72 11 -19 4 -28 1 -29 -8z"/>
</g>
</svg>
